<svg width="99" height="18" viewBox="0 0 99 18" fill="none" xmlns="http://www.w3.org/2000/svg">
<g clip-path="url(#clip0_1_1334)">
<path d="M9.00002 17.9999C13.9707 17.9999 18 13.9706 18 8.99994V2.69994C18 1.98385 17.7156 1.2971 17.2092 0.790751C16.7029 0.284402 16.0161 -6.10352e-05 15.3 -6.10352e-05H9.45002V3.94824C9.45002 4.84914 9.50492 5.78244 9.97742 6.54924C10.3157 7.09878 10.7682 7.56914 11.3042 7.9284C11.8403 8.28766 12.4474 8.52741 13.0842 8.63139L13.2566 8.65929C13.3276 8.68358 13.3893 8.72947 13.433 8.79056C13.4767 8.85164 13.5001 8.92485 13.5001 8.99994C13.5001 9.07503 13.4767 9.14824 13.433 9.20932C13.3893 9.2704 13.3276 9.3163 13.2566 9.34059L13.0842 9.36849C12.1537 9.5205 11.2944 9.96094 10.6277 10.6276C9.96103 11.2943 9.52058 12.1536 9.36857 13.0841L9.34067 13.2565C9.31639 13.3275 9.27049 13.3892 9.20941 13.4329C9.14832 13.4766 9.07511 13.5001 9.00002 13.5001C8.92493 13.5001 8.85172 13.4766 8.79064 13.4329C8.72956 13.3892 8.68366 13.3275 8.65937 13.2565L8.63147 13.0841C8.52746 12.4473 8.2877 11.8402 7.92844 11.3042C7.56919 10.7681 7.09885 10.3156 6.54932 9.97734C5.78252 9.50484 4.84922 9.44994 3.94832 9.44994H0.0108215C0.246172 14.2114 4.18052 17.9999 9.00002 17.9999Z" fill="#375DFB"/>
<path d="M0 8.54999H3.9483C4.8492 8.54999 5.7825 8.49509 6.5493 8.02259C7.14871 7.65328 7.65328 7.1487 8.0226 6.54929C8.4951 5.78249 8.55 4.84919 8.55 3.94829V-6.64739e-06H2.7C1.98392 -6.64739e-06 1.29716 0.284457 0.790812 0.790805C0.284463 1.29715 0 1.98391 0 2.69999V8.54999Z" fill="#375DFB"/>
<path d="M95.27 5.4468C97.7859 5.4468 99 7.20405 99 9.2394V13.0622H96.3671V9.693C96.3671 8.7705 96.0304 8.0091 95.0652 8.0091C94.1 8.0091 93.7782 8.7705 93.7782 9.693V13.0617H91.1453V9.693C91.1453 8.7705 90.8235 8.0091 89.8578 8.0091C88.8925 8.0091 88.556 8.7705 88.556 9.693V13.0617H85.9235V9.23895C85.9235 7.2036 87.1371 5.44635 89.6531 5.44635C91.0283 5.44635 92.0228 5.98815 92.4764 6.8814C92.9588 5.98815 94.0122 5.4468 95.27 5.4468ZM81.1922 10.719C82.0404 10.719 82.4062 9.94275 82.4062 9.0198V5.7393H85.0387V9.342C85.0387 11.4948 83.781 13.2818 81.1922 13.2818C78.6029 13.2818 77.3451 11.4953 77.3451 9.342V5.7393H79.9781V9.0198C79.9781 9.9423 80.3435 10.719 81.1922 10.719ZM73.4738 13.2962C71.8209 13.2962 70.7531 12.7251 70.124 11.6123L72.0257 10.5431C72.2889 11.0115 72.6835 11.246 73.3419 11.246C73.8833 11.246 74.1316 11.0556 74.1316 10.8212C74.1316 9.9279 70.2702 10.836 70.2702 7.99515C70.2702 6.61815 71.4402 5.5053 73.4296 5.5053C75.1702 5.5053 76.1211 6.35445 76.5454 7.1748L74.6437 8.2584C74.4831 7.8192 73.9854 7.5555 73.4882 7.5555C73.1079 7.5555 72.9032 7.7166 72.9032 7.9362C72.9032 8.8443 76.7646 8.00955 76.7646 10.7627C76.7646 12.3003 75.258 13.2962 73.4738 13.2962ZM64.2748 16.4304H61.6419V9.3861C61.6419 7.1451 63.324 5.5197 65.6644 5.5197C67.9464 5.5197 69.687 7.26255 69.687 9.3861C69.687 11.7293 68.1363 13.2818 65.8107 13.2818C65.2694 13.2818 64.7284 13.1207 64.2748 12.8714V16.4304ZM65.6644 10.8068C66.4983 10.8068 67.054 10.1624 67.054 9.4005C67.054 8.6247 66.4983 7.9947 65.6644 7.9947C64.8306 7.9947 64.2748 8.6247 64.2748 9.40095C64.2748 10.1624 64.8306 10.8068 65.6644 10.8068ZM59.0044 4.9635C58.1413 4.9635 57.425 4.24575 57.425 3.38175C57.425 2.51775 58.1413 1.8 59.0044 1.8C59.8675 1.8 60.5844 2.51775 60.5844 3.38175C60.5844 4.24575 59.8675 4.9635 59.0044 4.9635ZM57.6882 5.7393H60.3211V13.0622H57.6882V5.7393ZM52.6365 13.2818C50.3545 13.2818 48.6139 11.5245 48.6139 9.3861C48.6139 7.26255 50.3545 5.5053 52.6365 5.5053C54.9184 5.5053 56.659 7.26255 56.659 9.3861C56.659 11.5245 54.9184 13.2818 52.6365 13.2818ZM52.6365 10.8068C53.4703 10.8068 54.0261 10.1624 54.0261 9.4005C54.0261 8.6247 53.4703 7.9803 52.6365 7.9803C51.8026 7.9803 51.2469 8.6247 51.2469 9.4005C51.2469 10.1624 51.8026 10.8068 52.6365 10.8068ZM43.6423 16.65C41.8288 16.65 40.5121 15.8445 39.8394 14.409L42.0187 13.2377C42.2527 13.7358 42.6915 14.2484 43.5982 14.2484C44.5495 14.2484 45.1782 13.6476 45.2515 12.5933C44.9005 12.9011 44.3443 13.1351 43.511 13.1351C41.4774 13.1351 39.8389 11.5682 39.8389 9.37125C39.8389 7.24815 41.58 5.5197 43.8619 5.5197C46.2024 5.5197 47.8845 7.14555 47.8845 9.3861V12.2859C47.8845 14.922 46.0557 16.65 43.6423 16.65ZM43.8178 10.6605C44.6076 10.6605 45.2074 10.1183 45.2074 9.31275C45.2074 8.5221 44.608 7.9947 43.8178 7.9947C43.0425 7.9947 42.4282 8.5221 42.4282 9.3132C42.4282 10.1187 43.0425 10.6605 43.8178 10.6605ZM35.3731 13.2818C33.0912 13.2818 31.3501 11.5245 31.3501 9.3861C31.3501 7.26255 33.0912 5.5053 35.3731 5.5053C37.6546 5.5053 39.3957 7.26255 39.3957 9.3861C39.3957 11.5245 37.6551 13.2818 35.3731 13.2818ZM35.3731 10.8068C36.207 10.8068 36.7627 10.1624 36.7627 9.4005C36.7627 8.6247 36.207 7.9803 35.3731 7.9803C34.5393 7.9803 33.9835 8.6247 33.9835 9.4005C33.9835 10.1624 34.5393 10.8068 35.3731 10.8068ZM26.5558 3.177V10.5723H30.915V13.0622H26.19C24.5227 13.0622 23.85 12.1833 23.85 10.7919V3.177H26.5558Z" fill="#EEEEEE"/>
</g>
<defs>
<clipPath id="clip0_1_1334">
<rect width="99" height="18" fill="white"/>
</clipPath>
</defs>
</svg>
