<svg width="25" height="25" viewBox="0 0 25 25" fill="none" xmlns="http://www.w3.org/2000/svg">
<path d="M15.5137 5.93451e-07C13.9646 -2.2062e-05 12.7159 -4.46635e-05 11.7339 0.131991C10.7142 0.26908 9.85569 0.562344 9.17387 1.24418C8.57923 1.83881 8.27877 2.56954 8.12105 3.42817C7.9678 4.26253 7.93848 5.2836 7.93165 6.50873C7.92905 6.97792 8.30729 7.3604 8.7765 7.36302C9.24571 7.36564 9.62819 6.98738 9.63079 6.51819C9.63769 5.2795 9.66986 4.40151 9.79226 3.73515C9.91019 3.09309 10.0996 2.72144 10.3753 2.44567C10.6889 2.13216 11.1291 1.92776 11.9602 1.81601C12.8159 1.70096 13.9499 1.69916 15.5759 1.69916H16.7087C18.3346 1.69916 19.4687 1.70096 20.3244 1.81601C21.1556 1.92776 21.5957 2.13216 21.9092 2.44567C22.2228 2.75918 22.4271 3.19935 22.5389 4.03055C22.6539 4.88619 22.6557 6.02023 22.6557 7.64622V16.7084C22.6557 18.3344 22.6539 19.4684 22.5389 20.3241C22.4271 21.1553 22.2228 21.5954 21.9092 21.909C21.5957 22.2225 21.1556 22.4269 20.3244 22.5387C19.4687 22.6537 18.3346 22.6555 16.7087 22.6555H15.5759C13.9499 22.6555 12.8159 22.6537 11.9602 22.5387C11.1291 22.4269 10.6889 22.2225 10.3753 21.909C10.0996 21.6332 9.91019 21.2616 9.79226 20.6195C9.66986 19.9531 9.63769 19.0751 9.63079 17.8364C9.62819 17.3672 9.24571 16.989 8.7765 16.9916C8.30729 16.9942 7.92905 17.3768 7.93165 17.8459C7.93848 19.071 7.9678 20.0921 8.12105 20.9264C8.27877 21.7851 8.57923 22.5158 9.17387 23.1105C9.85569 23.7923 10.7142 24.0856 11.7339 24.2227C12.7159 24.3546 13.9646 24.3546 15.5137 24.3546H16.7708C18.32 24.3546 19.5687 24.3546 20.5508 24.2227C21.5704 24.0856 22.4288 23.7923 23.1108 23.1105C23.7926 22.4286 24.0858 21.5702 24.2229 20.5506C24.355 19.5684 24.3549 18.3198 24.3549 16.7706V7.58407C24.3549 6.0349 24.355 4.78622 24.2229 3.80414C24.0858 2.78452 23.7926 1.92602 23.1108 1.24418C22.4288 0.562344 21.5704 0.26908 20.5508 0.131991C19.5687 -4.46635e-05 18.32 -2.2062e-05 16.7708 5.93451e-07H15.5137Z" fill="#8B97A8"/>
<path d="M15.5756 11.3277C16.0448 11.3277 16.4252 11.7081 16.4252 12.1773C16.4252 12.6465 16.0448 13.0269 15.5756 13.0269H3.14621L5.36719 14.9306C5.72344 15.2359 5.7647 15.7723 5.45934 16.1285C5.15399 16.4848 4.61764 16.526 4.26139 16.2206L0.296685 12.8223C0.108372 12.661 0 12.4253 0 12.1773C0 11.9294 0.108372 11.6936 0.296685 11.5323L4.26139 8.13395C4.61764 7.82859 5.15399 7.86984 5.45934 8.2261C5.7647 8.58234 5.72344 9.11869 5.36719 9.42404L3.14621 11.3277H15.5756Z" fill="#8B97A8"/>
</svg>
