<svg width="25" height="24" viewBox="0 0 25 24" fill="none" xmlns="http://www.w3.org/2000/svg">
<path d="M24.9498 22.5528L20.6151 10.5743C20.3107 9.78627 19.6293 9.2991 18.8464 9.2991C18.0636 9.2991 17.3967 9.78627 17.0633 10.603L12.7431 22.5528C12.5401 23.1116 12.8301 23.7278 13.3955 23.9284C13.9609 24.129 14.5842 23.8424 14.7872 23.2836L15.686 20.8048H21.9923L22.8912 23.2836C23.0506 23.7278 23.4711 24 23.9205 24C24.0365 24 24.1669 23.9857 24.2829 23.9427C24.8483 23.7421 25.1382 23.126 24.9353 22.5672L24.9498 22.5528ZM16.4834 18.6412L18.8609 12.0645L21.2385 18.6412H16.4834ZM12.7866 6.04657C9.51019 11.1618 6.55276 14.2567 2.95744 16.32C2.78347 16.4203 2.59501 16.4633 2.42104 16.4633C2.04411 16.4633 1.68168 16.277 1.47872 15.9331C1.17428 15.4173 1.34824 14.7582 1.87015 14.4716C4.91456 12.7236 7.4081 10.2161 10.2061 6.0609H1.08729C0.492907 6.0609 0 5.57373 0 4.98627C0 4.39881 0.492907 3.91164 1.08729 3.91164H6.52377V1.07463C6.52377 0.487164 7.01667 0 7.61106 0C8.20543 0 8.69835 0.487164 8.69835 1.07463V3.91164H14.1348C14.7292 3.91164 15.2221 4.39881 15.2221 4.98627C15.2221 5.57373 14.7292 6.0609 14.1348 6.0609H12.7721L12.7866 6.04657ZM12.8446 16.4633C12.6561 16.4633 12.4676 16.4203 12.2937 16.32C11.3514 15.7755 10.438 15.1737 9.58267 14.5433C9.10426 14.1851 9.0028 13.5116 9.36523 13.0388C9.72766 12.566 10.409 12.4657 10.8874 12.8239C11.6703 13.4113 12.5256 13.9558 13.3955 14.4573C13.9174 14.7582 14.0913 15.4173 13.7869 15.9331C13.5839 16.277 13.2215 16.4633 12.8446 16.4633Z" fill="#8B97A8"/>
</svg>
